<svg width="164" height="53" viewBox="0 0 164 53" fill="none" xmlns="http://www.w3.org/2000/svg">
<g clip-path="url(#clip0_4_392)">
<path d="M40.4656 15.5251L40.5096 15.4957L40.4949 15.481L40.451 15.5104L40.4656 15.5251Z" fill="#2AABB2"/>
<path d="M13.9961 22.1708C16.8363 22.156 19.6179 23.0382 21.9457 24.6701L24.6395 26.5519L30.1296 22.7294L32.7795 20.877L25.108 15.5255L16.9534 21.2151C16.0896 21.8326 15.0648 22.156 13.9961 22.1708C11.2876 22.156 8.76951 19.9949 8.76951 16.9075V14.1142C8.76951 11.0268 11.2876 8.86562 13.9961 8.86562C15.0502 8.86562 16.0896 9.18906 16.9534 9.80653L25.108 15.4961L32.8088 10.13L30.1296 8.26285L21.9457 2.55855C19.6179 0.941347 16.8363 0.0592389 13.9961 0.0592389C7.37868 0.0445371 1.66899 4.69031 0.307445 11.1885C0.102482 12.1441 0 13.1291 0 14.0995V16.8928C0 17.8778 0.102482 18.8481 0.307445 19.8185C0.863774 22.4501 2.10819 24.7436 3.8211 26.5519C6.38315 23.8174 10.0286 22.156 13.9961 22.1708Z" fill="#48B3B8"/>
<path d="M51.5922 30.9472C48.752 30.9472 45.9703 30.0798 43.6425 28.4479L40.9341 26.5661L35.4733 30.3739L32.7941 32.2263L40.4803 37.5777L48.6349 31.8881C49.4986 31.2707 50.5235 30.9472 51.5922 30.9472C54.3006 30.9472 56.8188 33.1084 56.8188 36.1958V38.9891C56.8188 42.0765 54.3006 44.223 51.5922 44.2377C50.5381 44.2377 49.4986 43.9142 48.6349 43.2967L40.4803 37.6071L32.7941 42.9733L35.4587 44.8404L43.6425 50.5447C45.9557 52.1766 48.7374 53.0587 51.5776 53.044C55.1791 53.044 58.6342 51.6474 61.2401 49.1628C61.8989 48.5306 62.4845 47.8396 63.0116 47.1045C64.1096 45.5608 64.8855 43.7966 65.2808 41.9295C65.4711 40.9739 65.5736 39.9888 65.5736 39.0038V36.2105C65.5736 35.2255 65.4858 34.2404 65.2808 33.2848C64.7245 30.6679 63.4801 28.3597 61.7672 26.5514C59.2051 29.2859 55.5597 30.9472 51.5922 30.9472Z" fill="#45539D"/>
<path d="M25.1242 37.6235L25.1396 37.608L25.1242 37.5925L25.0934 37.608L25.1242 37.6235Z" fill="#2C3A96"/>
<path d="M16.9534 43.3114C16.0896 43.9289 15.0648 44.2524 13.9961 44.2524C11.2876 44.2524 8.76951 42.0912 8.76951 39.0038V36.2105C8.76951 33.1231 11.2876 30.9766 13.9961 30.9619C15.0502 30.9619 16.0896 31.2854 16.9534 31.9028L25.1227 37.5924L32.8088 32.241L30.1443 30.3739L24.6542 26.5514L21.9604 28.4332C20.4378 29.5065 18.7102 30.2562 16.8802 30.6385C11.9464 31.697 7.0566 29.9916 3.83574 26.5514C2.12284 28.3744 0.878415 30.6826 0.322085 33.2848C0.102482 34.2404 0 35.2255 0 36.2105V39.0038C0 39.9888 0.102482 40.9592 0.307445 41.9295C1.90323 49.5156 9.32583 54.3525 16.8656 52.75C18.6956 52.3678 20.4231 51.618 21.9457 50.5447L30.1296 44.8404L32.7941 42.9733L25.108 37.6218L16.9534 43.3114Z" fill="#5A88B4"/>
<path d="M40.4803 37.6219L40.5096 37.6072L40.4803 37.5778L40.451 37.6072L40.4803 37.6219Z" fill="#2C69A5"/>
<path d="M16.8656 30.6386C18.6956 30.2563 20.4231 29.5065 21.9457 28.4333L24.6395 26.5515L21.9457 24.6697C19.6179 23.0378 16.8363 22.1556 13.9961 22.1703C10.0286 22.1556 6.38315 23.8169 3.82111 26.5515C7.04196 29.977 11.9318 31.6971 16.8656 30.6386Z" fill="#3579A5"/>
<path d="M40.451 37.6072L40.4803 37.5778L32.7942 32.2263L25.1227 37.5925L25.1373 37.6072L25.1227 37.6219L32.7942 42.9733L40.4803 37.6219L40.451 37.6072Z" fill="#3465A0"/>
<path d="M65.6029 16.907V14.1137C65.6029 13.1287 65.5004 12.1437 65.2955 11.188C63.6997 3.60192 56.2917 -1.24968 48.7373 0.352818C46.9073 0.735065 45.1798 1.49956 43.6425 2.57279L35.4586 8.27709L32.8088 10.1295L40.4949 15.481L48.6349 9.80608C49.4986 9.1886 50.5235 8.86516 51.5922 8.86516C54.3006 8.86516 56.8188 11.0263 56.8188 14.1137V16.907C56.8188 19.9797 54.3006 22.1409 51.5922 22.1556C50.5381 22.1556 49.4986 21.8174 48.6349 21.2147L40.4656 15.5251L32.7795 20.8765L35.4586 22.7437L40.9341 26.5661L43.6572 24.6696C45.1798 23.5964 46.9073 22.8466 48.7373 22.4643C53.6711 21.4205 58.5463 23.1259 61.7818 26.5514C63.4947 24.7284 64.7391 22.4349 65.2955 19.8327C65.5004 18.8771 65.6029 17.8921 65.6029 16.907Z" fill="#5A88B4"/>
<path d="M25.108 15.481L25.0787 15.5104L25.108 15.5251L25.1373 15.5104L25.108 15.481Z" fill="#2C69A5"/>
<path d="M25.1373 15.5104L25.108 15.5251L32.7795 20.8765L40.4656 15.5251L40.451 15.5104L40.4949 15.481L32.8088 10.1295L25.108 15.481L25.1373 15.5104Z" fill="#3579A5"/>
<path d="M48.7374 22.4643C46.9074 22.8466 45.1798 23.5964 43.6572 24.6696L40.9341 26.5662L43.6426 28.448C45.9704 30.0799 48.752 30.9473 51.5922 30.9473C55.5597 30.962 59.2052 29.286 61.7818 26.5515C58.5464 23.1259 53.6712 21.4058 48.7374 22.4643Z" fill="#3465A0"/>
<path d="M91.1648 19.7446L86.8605 33.2262H82.0146L79.8479 26.0223L77.564 33.2262H72.7181L68.4285 19.7446H73.0841L75.4265 27.4043L77.9007 19.7446H82.0585L84.401 27.5072L86.8752 19.7446H91.1648Z" fill="#101010"/>
<path d="M95.1177 32.6234C93.9611 32.0206 93.0681 31.1826 92.4092 30.1094C91.7504 29.0361 91.4283 27.8306 91.4283 26.478C91.4283 25.1254 91.7504 23.9199 92.4092 22.8467C93.0681 21.7734 93.9611 20.9354 95.1177 20.3327C96.2743 19.7299 97.5626 19.4211 99.012 19.4211C100.461 19.4211 101.75 19.7299 102.906 20.3327C104.063 20.9354 104.956 21.7734 105.615 22.8467C106.274 23.9199 106.596 25.1254 106.596 26.478C106.596 27.8306 106.274 29.0361 105.615 30.1094C104.956 31.1826 104.063 32.0206 102.906 32.6234C101.75 33.2261 100.461 33.5349 99.012 33.5349C97.5626 33.5349 96.2596 33.2261 95.1177 32.6234ZM100.535 29.4478C100.988 29.1684 101.354 28.7862 101.618 28.2716C101.881 27.7718 102.028 27.169 102.028 26.4927C102.028 25.8164 101.896 25.2137 101.618 24.7138C101.354 24.2139 100.988 23.817 100.535 23.5376C100.081 23.2583 99.5683 23.126 99.012 23.126C98.4557 23.126 97.9433 23.2583 97.4894 23.5376C97.0356 23.817 96.6696 24.1992 96.406 24.7138C96.1425 25.2284 95.9961 25.8164 95.9961 26.4927C95.9961 27.169 96.1279 27.7718 96.406 28.2716C96.6696 28.7862 97.0356 29.1684 97.4894 29.4478C97.9433 29.7271 98.4557 29.8594 99.012 29.8594C99.5683 29.8594 100.081 29.7124 100.535 29.4478Z" fill="#101010"/>
<path d="M110.958 23.2731H107.02V19.7446H119.406V23.2731H115.468V33.2262H110.944V23.2731H110.958Z" fill="#101010"/>
<path d="M133.826 19.7446V33.2262H130.108L125.013 27.0955V33.2262H120.606V19.7446H124.325L129.42 25.8753V19.7446H133.826Z" fill="#101010"/>
<path d="M139.156 32.6234C137.999 32.0206 137.106 31.1826 136.447 30.1094C135.788 29.0361 135.466 27.8306 135.466 26.478C135.466 25.1254 135.788 23.9199 136.447 22.8467C137.106 21.7734 137.999 20.9354 139.156 20.3327C140.312 19.7299 141.6 19.4211 143.05 19.4211C144.499 19.4211 145.788 19.7299 146.944 20.3327C148.101 20.9354 148.994 21.7734 149.653 22.8467C150.311 23.9199 150.633 25.1254 150.633 26.478C150.633 27.8306 150.311 29.0361 149.653 30.1094C148.994 31.1826 148.101 32.0206 146.944 32.6234C145.788 33.2261 144.499 33.5349 143.05 33.5349C141.6 33.5349 140.297 33.2261 139.156 32.6234ZM144.572 29.4478C145.026 29.1684 145.392 28.7862 145.656 28.2716C145.919 27.7718 146.066 27.169 146.066 26.4927C146.066 25.8164 145.934 25.2137 145.656 24.7138C145.392 24.2139 145.026 23.817 144.572 23.5376C144.119 23.2583 143.606 23.126 143.05 23.126C142.494 23.126 141.981 23.2583 141.527 23.5376C141.073 23.817 140.707 24.1992 140.444 24.7138C140.18 25.2284 140.034 25.8164 140.034 26.4927C140.034 27.169 140.166 27.7718 140.444 28.2716C140.707 28.7862 141.073 29.1684 141.527 29.4478C141.981 29.7271 142.494 29.8594 143.05 29.8594C143.606 29.8594 144.119 29.7124 144.572 29.4478Z" fill="#101010"/>
<path d="M154.996 23.2731H151.058V19.7446H163.444V23.2731H159.505V33.2262H154.982V23.2731H154.996Z" fill="#101010"/>
</g>
<defs>
<clipPath id="clip0_4_392">
<rect width="164" height="53" fill="white"/>
</clipPath>
</defs>
</svg>
